<?xml version="1.0" encoding="UTF-8"?>
<svg width="129px" height="129px" viewBox="0 0 129 129" version="1.1" xmlns="http://www.w3.org/2000/svg" xmlns:xlink="http://www.w3.org/1999/xlink">
    <!-- Generator: Sketch 58 (84663) - https://sketch.com -->
    <title>g952</title>
    <desc>Created with Sketch.</desc>
    <defs>
        <linearGradient x1="4.18097354%" y1="39.8785631%" x2="44.4520665%" y2="39.8785244%" id="linearGradient-1">
            <stop stop-color="#000000" offset="0%"></stop>
            <stop stop-color="#000000" stop-opacity="0" offset="100%"></stop>
        </linearGradient>
    </defs>
    <g id="Page-1" stroke="none" stroke-width="1" fill="none" fill-rule="evenodd">
        <g id="Logos_mobile_first" transform="translate(-166.000000, -1.000000)" fill-rule="nonzero">
            <g id="g952" transform="translate(165.690088, 0.232197)">
                <circle id="circle859" fill="#333333" cx="64.8099114" cy="65.062209" r="64.000002"></circle>
                <g id="g945" transform="translate(29.973022, 23.466667)">
                    <path d="M61.4619539,9.29745096 L61.1786259,9.29799496 C61.2101992,9.29799496 61.2413459,9.29906162 61.2729192,9.30012829 C61.3360659,9.29979762 61.3988073,9.29799496 61.4619859,9.29799496 L61.4619539,9.29745096 Z M61.2728872,9.29958429 C53.9608017,9.33777096 47.1217295,11.5868377 41.5790626,15.4081605 L41.5790626,15.9803205 C41.5694626,15.9760538 41.5595426,15.9728538 41.549836,15.9686938 L41.549836,36.9071585 C42.8447053,30.5083636 48.4945828,25.1593288 56.0230951,23.4602674 L56.0230951,49.5922789 L69.6210262,41.7424226 L69.6210262,24.4855261 C69.6295595,24.4897928 69.6412928,24.4929928 69.6507862,24.4971528 L69.6507862,22.8958727 L69.6507862,10.311083 L69.6507862,9.29794162 L62.8234366,9.29794162 C62.6770793,9.30007496 62.531106,9.30860829 62.3852179,9.31948829 C62.0156393,9.30711496 61.6447699,9.30082162 61.2728766,9.29964829 L61.2728872,9.29958429 Z" id="path861" fill="#A4C639"></path>
                    <path d="M54.3019217,10.0616536 C48.0917775,11.3688644 42.490668,14.2942938 38.0954359,18.3684912 L38.0954359,43.2664014 L41.5202466,43.2664014 L41.4803533,39.8682146 C41.3974733,32.7898357 46.6669668,26.4591475 54.3019217,23.9931101 L54.3019217,10.0616536 Z" id="path863" fill="url(#linearGradient-1)" opacity="0.2"></path>
                    <path d="M33.3202464,0.780288024 C15.3663898,0.780288024 0.0229973341,14.1144324 0.0229973341,31.3513823 L0.0229973341,81.7746799 C0.0229973341,81.9879492 0.0325973344,82.1987332 0.0376106678,82.4107972 L13.6210778,74.5684077 L13.6210778,31.3513823 C13.6210778,23.6886194 19.4991899,16.8989659 28.1647049,14.9433071 L28.0944115,65.8403647 L41.7628066,58.3206845 L41.7628066,15.9686938 C41.7724066,15.9729605 41.7824333,15.9761605 41.79214,15.9803205 L41.79214,14.3787098 L41.79214,1.79401606 L41.79214,0.780288024 L34.9651318,0.780288024 C34.8187744,0.782752024 34.6725238,0.791285358 34.5266357,0.802485358 C34.1257291,0.789045358 33.7239797,0.780288024 33.3202677,0.780288024 L33.3202464,0.780288024 Z" id="path865" fill="#009DDC"></path>
                </g>
            </g>
        </g>
    </g>
</svg>